<?xml version="1.0" encoding="utf-8" standalone="no"?>
<!DOCTYPE svg PUBLIC "-//W3C//DTD SVG 1.1//EN"
  "http://www.w3.org/Graphics/SVG/1.1/DTD/svg11.dtd">
<svg xmlns:xlink="http://www.w3.org/1999/xlink" width="928.8pt" height="449.466406pt" viewBox="0 0 928.8 449.466406" xmlns="http://www.w3.org/2000/svg" version="1.1">
 <metadata>
  <rdf:RDF xmlns:dc="http://purl.org/dc/elements/1.1/" xmlns:cc="http://creativecommons.org/ns#" xmlns:rdf="http://www.w3.org/1999/02/22-rdf-syntax-ns#">
   <cc:Work>
    <dc:type rdf:resource="http://purl.org/dc/dcmitype/StillImage"/>
    <dc:date>2026-07-07T18:35:37.295584</dc:date>
    <dc:format>image/svg+xml</dc:format>
    <dc:creator>
     <cc:Agent>
      <dc:title>Matplotlib v3.10.3, https://matplotlib.org/</dc:title>
     </cc:Agent>
    </dc:creator>
   </cc:Work>
  </rdf:RDF>
 </metadata>
 <defs>
  <style type="text/css">*{stroke-linejoin: round; stroke-linecap: butt}</style>
 </defs>
 <g id="figure_1">
  <g id="patch_1">
   <path d="M 0 449.466406 
L 928.8 449.466406 
L 928.8 0 
L 0 0 
z
" style="fill: #ffffff"/>
  </g>
  <g id="axes_1">
   <g id="patch_2">
    <path d="M 7.2 412.877969 
L 921.6 412.877969 
L 921.6 33.077969 
L 7.2 33.077969 
z
" style="fill: #ffffff"/>
   </g>
   <g id="line2d_1">
    <path d="M 7.2 73.940217 
L 921.6 73.940217 
" clip-path="url(#pedc537649a)" style="fill: none; stroke: #dfe6ee; stroke-width: 0.8; stroke-linecap: square"/>
   </g>
   <g id="line2d_2">
    <path d="M 7.2 120.275087 
L 921.6 120.275087 
" clip-path="url(#pedc537649a)" style="fill: none; stroke: #dfe6ee; stroke-width: 0.8; stroke-linecap: square"/>
   </g>
   <g id="matplotlib.axis_1">
    <g id="xtick_1">
     <g id="line2d_3">
      <defs>
       <path id="m29a4818363" d="M 0 0 
L 0 3.5 
" style="stroke: #000000; stroke-width: 0.8"/>
      </defs>
      <g>
       <use xlink:href="#m29a4818363" x="152.478505" y="412.877969" style="stroke: #000000; stroke-width: 0.8"/>
      </g>
     </g>
     <g id="text_1">
      <!-- 0 -->
      <g transform="translate(149.61538 426.716562) scale(0.09 -0.09)">
       <defs>
        <path id="DejaVuSans-30" d="M 2034 4250 
Q 1547 4250 1301 3770 
Q 1056 3291 1056 2328 
Q 1056 1369 1301 889 
Q 1547 409 2034 409 
Q 2525 409 2770 889 
Q 3016 1369 3016 2328 
Q 3016 3291 2770 3770 
Q 2525 4250 2034 4250 
z
M 2034 4750 
Q 2819 4750 3233 4129 
Q 3647 3509 3647 2328 
Q 3647 1150 3233 529 
Q 2819 -91 2034 -91 
Q 1250 -91 836 529 
Q 422 1150 422 2328 
Q 422 3509 836 4129 
Q 1250 4750 2034 4750 
z
" transform="scale(0.015625)"/>
       </defs>
       <use xlink:href="#DejaVuSans-30"/>
      </g>
     </g>
    </g>
    <g id="xtick_2">
     <g id="line2d_4">
      <g>
       <use xlink:href="#m29a4818363" x="237.936449" y="412.877969" style="stroke: #000000; stroke-width: 0.8"/>
      </g>
     </g>
     <g id="text_2">
      <!-- 1 -->
      <g transform="translate(235.073324 426.716562) scale(0.09 -0.09)">
       <defs>
        <path id="DejaVuSans-31" d="M 794 531 
L 1825 531 
L 1825 4091 
L 703 3866 
L 703 4441 
L 1819 4666 
L 2450 4666 
L 2450 531 
L 3481 531 
L 3481 0 
L 794 0 
L 794 531 
z
" transform="scale(0.015625)"/>
       </defs>
       <use xlink:href="#DejaVuSans-31"/>
      </g>
     </g>
    </g>
    <g id="xtick_3">
     <g id="line2d_5">
      <g>
       <use xlink:href="#m29a4818363" x="323.394393" y="412.877969" style="stroke: #000000; stroke-width: 0.8"/>
      </g>
     </g>
     <g id="text_3">
      <!-- 2 -->
      <g transform="translate(320.531268 426.716562) scale(0.09 -0.09)">
       <defs>
        <path id="DejaVuSans-32" d="M 1228 531 
L 3431 531 
L 3431 0 
L 469 0 
L 469 531 
Q 828 903 1448 1529 
Q 2069 2156 2228 2338 
Q 2531 2678 2651 2914 
Q 2772 3150 2772 3378 
Q 2772 3750 2511 3984 
Q 2250 4219 1831 4219 
Q 1534 4219 1204 4116 
Q 875 4013 500 3803 
L 500 4441 
Q 881 4594 1212 4672 
Q 1544 4750 1819 4750 
Q 2544 4750 2975 4387 
Q 3406 4025 3406 3419 
Q 3406 3131 3298 2873 
Q 3191 2616 2906 2266 
Q 2828 2175 2409 1742 
Q 1991 1309 1228 531 
z
" transform="scale(0.015625)"/>
       </defs>
       <use xlink:href="#DejaVuSans-32"/>
      </g>
     </g>
    </g>
    <g id="xtick_4">
     <g id="line2d_6">
      <g>
       <use xlink:href="#m29a4818363" x="408.852336" y="412.877969" style="stroke: #000000; stroke-width: 0.8"/>
      </g>
     </g>
     <g id="text_4">
      <!-- 3 -->
      <g transform="translate(405.989211 426.716562) scale(0.09 -0.09)">
       <defs>
        <path id="DejaVuSans-33" d="M 2597 2516 
Q 3050 2419 3304 2112 
Q 3559 1806 3559 1356 
Q 3559 666 3084 287 
Q 2609 -91 1734 -91 
Q 1441 -91 1130 -33 
Q 819 25 488 141 
L 488 750 
Q 750 597 1062 519 
Q 1375 441 1716 441 
Q 2309 441 2620 675 
Q 2931 909 2931 1356 
Q 2931 1769 2642 2001 
Q 2353 2234 1838 2234 
L 1294 2234 
L 1294 2753 
L 1863 2753 
Q 2328 2753 2575 2939 
Q 2822 3125 2822 3475 
Q 2822 3834 2567 4026 
Q 2313 4219 1838 4219 
Q 1578 4219 1281 4162 
Q 984 4106 628 3988 
L 628 4550 
Q 988 4650 1302 4700 
Q 1616 4750 1894 4750 
Q 2613 4750 3031 4423 
Q 3450 4097 3450 3541 
Q 3450 3153 3228 2886 
Q 3006 2619 2597 2516 
z
" transform="scale(0.015625)"/>
       </defs>
       <use xlink:href="#DejaVuSans-33"/>
      </g>
     </g>
    </g>
    <g id="xtick_5">
     <g id="line2d_7">
      <g>
       <use xlink:href="#m29a4818363" x="494.31028" y="412.877969" style="stroke: #000000; stroke-width: 0.8"/>
      </g>
     </g>
     <g id="text_5">
      <!-- 4 -->
      <g transform="translate(491.447155 426.716562) scale(0.09 -0.09)">
       <defs>
        <path id="DejaVuSans-34" d="M 2419 4116 
L 825 1625 
L 2419 1625 
L 2419 4116 
z
M 2253 4666 
L 3047 4666 
L 3047 1625 
L 3713 1625 
L 3713 1100 
L 3047 1100 
L 3047 0 
L 2419 0 
L 2419 1100 
L 313 1100 
L 313 1709 
L 2253 4666 
z
" transform="scale(0.015625)"/>
       </defs>
       <use xlink:href="#DejaVuSans-34"/>
      </g>
     </g>
    </g>
    <g id="xtick_6">
     <g id="line2d_8">
      <g>
       <use xlink:href="#m29a4818363" x="579.768224" y="412.877969" style="stroke: #000000; stroke-width: 0.8"/>
      </g>
     </g>
     <g id="text_6">
      <!-- 5 -->
      <g transform="translate(576.905099 426.716562) scale(0.09 -0.09)">
       <defs>
        <path id="DejaVuSans-35" d="M 691 4666 
L 3169 4666 
L 3169 4134 
L 1269 4134 
L 1269 2991 
Q 1406 3038 1543 3061 
Q 1681 3084 1819 3084 
Q 2600 3084 3056 2656 
Q 3513 2228 3513 1497 
Q 3513 744 3044 326 
Q 2575 -91 1722 -91 
Q 1428 -91 1123 -41 
Q 819 9 494 109 
L 494 744 
Q 775 591 1075 516 
Q 1375 441 1709 441 
Q 2250 441 2565 725 
Q 2881 1009 2881 1497 
Q 2881 1984 2565 2268 
Q 2250 2553 1709 2553 
Q 1456 2553 1204 2497 
Q 953 2441 691 2322 
L 691 4666 
z
" transform="scale(0.015625)"/>
       </defs>
       <use xlink:href="#DejaVuSans-35"/>
      </g>
     </g>
    </g>
    <g id="xtick_7">
     <g id="line2d_9">
      <g>
       <use xlink:href="#m29a4818363" x="665.226168" y="412.877969" style="stroke: #000000; stroke-width: 0.8"/>
      </g>
     </g>
     <g id="text_7">
      <!-- 6 -->
      <g transform="translate(662.363043 426.716562) scale(0.09 -0.09)">
       <defs>
        <path id="DejaVuSans-36" d="M 2113 2584 
Q 1688 2584 1439 2293 
Q 1191 2003 1191 1497 
Q 1191 994 1439 701 
Q 1688 409 2113 409 
Q 2538 409 2786 701 
Q 3034 994 3034 1497 
Q 3034 2003 2786 2293 
Q 2538 2584 2113 2584 
z
M 3366 4563 
L 3366 3988 
Q 3128 4100 2886 4159 
Q 2644 4219 2406 4219 
Q 1781 4219 1451 3797 
Q 1122 3375 1075 2522 
Q 1259 2794 1537 2939 
Q 1816 3084 2150 3084 
Q 2853 3084 3261 2657 
Q 3669 2231 3669 1497 
Q 3669 778 3244 343 
Q 2819 -91 2113 -91 
Q 1303 -91 875 529 
Q 447 1150 447 2328 
Q 447 3434 972 4092 
Q 1497 4750 2381 4750 
Q 2619 4750 2861 4703 
Q 3103 4656 3366 4563 
z
" transform="scale(0.015625)"/>
       </defs>
       <use xlink:href="#DejaVuSans-36"/>
      </g>
     </g>
    </g>
    <g id="xtick_8">
     <g id="line2d_10">
      <g>
       <use xlink:href="#m29a4818363" x="750.684112" y="412.877969" style="stroke: #000000; stroke-width: 0.8"/>
      </g>
     </g>
     <g id="text_8">
      <!-- 7 -->
      <g transform="translate(747.820987 426.716562) scale(0.09 -0.09)">
       <defs>
        <path id="DejaVuSans-37" d="M 525 4666 
L 3525 4666 
L 3525 4397 
L 1831 0 
L 1172 0 
L 2766 4134 
L 525 4134 
L 525 4666 
z
" transform="scale(0.015625)"/>
       </defs>
       <use xlink:href="#DejaVuSans-37"/>
      </g>
     </g>
    </g>
    <g id="xtick_9">
     <g id="line2d_11">
      <g>
       <use xlink:href="#m29a4818363" x="836.142056" y="412.877969" style="stroke: #000000; stroke-width: 0.8"/>
      </g>
     </g>
     <g id="text_9">
      <!-- 8 -->
      <g transform="translate(833.278931 426.716562) scale(0.09 -0.09)">
       <defs>
        <path id="DejaVuSans-38" d="M 2034 2216 
Q 1584 2216 1326 1975 
Q 1069 1734 1069 1313 
Q 1069 891 1326 650 
Q 1584 409 2034 409 
Q 2484 409 2743 651 
Q 3003 894 3003 1313 
Q 3003 1734 2745 1975 
Q 2488 2216 2034 2216 
z
M 1403 2484 
Q 997 2584 770 2862 
Q 544 3141 544 3541 
Q 544 4100 942 4425 
Q 1341 4750 2034 4750 
Q 2731 4750 3128 4425 
Q 3525 4100 3525 3541 
Q 3525 3141 3298 2862 
Q 3072 2584 2669 2484 
Q 3125 2378 3379 2068 
Q 3634 1759 3634 1313 
Q 3634 634 3220 271 
Q 2806 -91 2034 -91 
Q 1263 -91 848 271 
Q 434 634 434 1313 
Q 434 1759 690 2068 
Q 947 2378 1403 2484 
z
M 1172 3481 
Q 1172 3119 1398 2916 
Q 1625 2713 2034 2713 
Q 2441 2713 2670 2916 
Q 2900 3119 2900 3481 
Q 2900 3844 2670 4047 
Q 2441 4250 2034 4250 
Q 1625 4250 1398 4047 
Q 1172 3844 1172 3481 
z
" transform="scale(0.015625)"/>
       </defs>
       <use xlink:href="#DejaVuSans-38"/>
      </g>
     </g>
    </g>
    <g id="text_10">
     <!-- clock cycles -->
     <g transform="translate(434.440625 440.186719) scale(0.1 -0.1)">
      <defs>
       <path id="DejaVuSans-63" d="M 3122 3366 
L 3122 2828 
Q 2878 2963 2633 3030 
Q 2388 3097 2138 3097 
Q 1578 3097 1268 2742 
Q 959 2388 959 1747 
Q 959 1106 1268 751 
Q 1578 397 2138 397 
Q 2388 397 2633 464 
Q 2878 531 3122 666 
L 3122 134 
Q 2881 22 2623 -34 
Q 2366 -91 2075 -91 
Q 1284 -91 818 406 
Q 353 903 353 1747 
Q 353 2603 823 3093 
Q 1294 3584 2113 3584 
Q 2378 3584 2631 3529 
Q 2884 3475 3122 3366 
z
" transform="scale(0.015625)"/>
       <path id="DejaVuSans-6c" d="M 603 4863 
L 1178 4863 
L 1178 0 
L 603 0 
L 603 4863 
z
" transform="scale(0.015625)"/>
       <path id="DejaVuSans-6f" d="M 1959 3097 
Q 1497 3097 1228 2736 
Q 959 2375 959 1747 
Q 959 1119 1226 758 
Q 1494 397 1959 397 
Q 2419 397 2687 759 
Q 2956 1122 2956 1747 
Q 2956 2369 2687 2733 
Q 2419 3097 1959 3097 
z
M 1959 3584 
Q 2709 3584 3137 3096 
Q 3566 2609 3566 1747 
Q 3566 888 3137 398 
Q 2709 -91 1959 -91 
Q 1206 -91 779 398 
Q 353 888 353 1747 
Q 353 2609 779 3096 
Q 1206 3584 1959 3584 
z
" transform="scale(0.015625)"/>
       <path id="DejaVuSans-6b" d="M 581 4863 
L 1159 4863 
L 1159 1991 
L 2875 3500 
L 3609 3500 
L 1753 1863 
L 3688 0 
L 2938 0 
L 1159 1709 
L 1159 0 
L 581 0 
L 581 4863 
z
" transform="scale(0.015625)"/>
       <path id="DejaVuSans-20" transform="scale(0.015625)"/>
       <path id="DejaVuSans-79" d="M 2059 -325 
Q 1816 -950 1584 -1140 
Q 1353 -1331 966 -1331 
L 506 -1331 
L 506 -850 
L 844 -850 
Q 1081 -850 1212 -737 
Q 1344 -625 1503 -206 
L 1606 56 
L 191 3500 
L 800 3500 
L 1894 763 
L 2988 3500 
L 3597 3500 
L 2059 -325 
z
" transform="scale(0.015625)"/>
       <path id="DejaVuSans-65" d="M 3597 1894 
L 3597 1613 
L 953 1613 
Q 991 1019 1311 708 
Q 1631 397 2203 397 
Q 2534 397 2845 478 
Q 3156 559 3463 722 
L 3463 178 
Q 3153 47 2828 -22 
Q 2503 -91 2169 -91 
Q 1331 -91 842 396 
Q 353 884 353 1716 
Q 353 2575 817 3079 
Q 1281 3584 2069 3584 
Q 2775 3584 3186 3129 
Q 3597 2675 3597 1894 
z
M 3022 2063 
Q 3016 2534 2758 2815 
Q 2500 3097 2075 3097 
Q 1594 3097 1305 2825 
Q 1016 2553 972 2059 
L 3022 2063 
z
" transform="scale(0.015625)"/>
       <path id="DejaVuSans-73" d="M 2834 3397 
L 2834 2853 
Q 2591 2978 2328 3040 
Q 2066 3103 1784 3103 
Q 1356 3103 1142 2972 
Q 928 2841 928 2578 
Q 928 2378 1081 2264 
Q 1234 2150 1697 2047 
L 1894 2003 
Q 2506 1872 2764 1633 
Q 3022 1394 3022 966 
Q 3022 478 2636 193 
Q 2250 -91 1575 -91 
Q 1294 -91 989 -36 
Q 684 19 347 128 
L 347 722 
Q 666 556 975 473 
Q 1284 391 1588 391 
Q 1994 391 2212 530 
Q 2431 669 2431 922 
Q 2431 1156 2273 1281 
Q 2116 1406 1581 1522 
L 1381 1569 
Q 847 1681 609 1914 
Q 372 2147 372 2553 
Q 372 3047 722 3315 
Q 1072 3584 1716 3584 
Q 2034 3584 2315 3537 
Q 2597 3491 2834 3397 
z
" transform="scale(0.015625)"/>
      </defs>
      <use xlink:href="#DejaVuSans-63"/>
      <use xlink:href="#DejaVuSans-6c" transform="translate(54.980469 0)"/>
      <use xlink:href="#DejaVuSans-6f" transform="translate(82.763672 0)"/>
      <use xlink:href="#DejaVuSans-63" transform="translate(143.945312 0)"/>
      <use xlink:href="#DejaVuSans-6b" transform="translate(198.925781 0)"/>
      <use xlink:href="#DejaVuSans-20" transform="translate(256.835938 0)"/>
      <use xlink:href="#DejaVuSans-63" transform="translate(288.623047 0)"/>
      <use xlink:href="#DejaVuSans-79" transform="translate(343.603516 0)"/>
      <use xlink:href="#DejaVuSans-63" transform="translate(402.783203 0)"/>
      <use xlink:href="#DejaVuSans-6c" transform="translate(457.763672 0)"/>
      <use xlink:href="#DejaVuSans-65" transform="translate(485.546875 0)"/>
      <use xlink:href="#DejaVuSans-73" transform="translate(547.070312 0)"/>
     </g>
    </g>
   </g>
   <g id="matplotlib.axis_2"/>
   <g id="patch_3">
    <path d="M 7.2 412.877969 
L 921.6 412.877969 
" style="fill: none; stroke: #000000; stroke-width: 0.8; stroke-linejoin: miter; stroke-linecap: square"/>
   </g>
   <g id="line2d_12">
    <path d="M 152.478505 73.940217 
L 237.936449 73.940217 
L 237.936449 47.671629 
L 323.394393 47.671629 
L 323.394393 47.671629 
L 408.852336 47.671629 
L 408.852336 47.671629 
L 494.31028 47.671629 
L 494.31028 47.671629 
L 579.768224 47.671629 
L 579.768224 47.671629 
L 665.226168 47.671629 
L 665.226168 47.671629 
L 750.684112 47.671629 
L 750.684112 47.671629 
L 836.142056 47.671629 
L 836.142056 47.671629 
L 921.6 47.671629 
L 921.6 47.671629 
" clip-path="url(#pedc537649a)" style="fill: none; stroke: #08306b; stroke-width: 1.8; stroke-linecap: square"/>
   </g>
   <g id="text_11">
    <!-- rst_n -->
    <g transform="translate(59.010496 63.564516) scale(0.11 -0.11)">
     <defs>
      <path id="DejaVuSansMono-72" d="M 3609 2778 
Q 3425 2922 3234 2987 
Q 3044 3053 2816 3053 
Q 2278 3053 1993 2715 
Q 1709 2378 1709 1741 
L 1709 0 
L 1131 0 
L 1131 3500 
L 1709 3500 
L 1709 2816 
Q 1853 3188 2151 3386 
Q 2450 3584 2859 3584 
Q 3072 3584 3256 3531 
Q 3441 3478 3609 3366 
L 3609 2778 
z
" transform="scale(0.015625)"/>
      <path id="DejaVuSansMono-73" d="M 3041 3378 
L 3041 2816 
Q 2794 2959 2544 3031 
Q 2294 3103 2034 3103 
Q 1644 3103 1451 2976 
Q 1259 2850 1259 2591 
Q 1259 2356 1403 2240 
Q 1547 2125 2119 2016 
L 2350 1972 
Q 2778 1891 2998 1647 
Q 3219 1403 3219 1013 
Q 3219 494 2850 201 
Q 2481 -91 1825 -91 
Q 1566 -91 1281 -36 
Q 997 19 666 128 
L 666 722 
Q 988 556 1281 473 
Q 1575 391 1838 391 
Q 2219 391 2428 545 
Q 2638 700 2638 978 
Q 2638 1378 1872 1531 
L 1847 1538 
L 1631 1581 
Q 1134 1678 906 1908 
Q 678 2138 678 2534 
Q 678 3038 1018 3311 
Q 1359 3584 1991 3584 
Q 2272 3584 2531 3532 
Q 2791 3481 3041 3378 
z
" transform="scale(0.015625)"/>
      <path id="DejaVuSansMono-74" d="M 1919 4494 
L 1919 3500 
L 3225 3500 
L 3225 3053 
L 1919 3053 
L 1919 1153 
Q 1919 766 2066 612 
Q 2213 459 2578 459 
L 3225 459 
L 3225 0 
L 2522 0 
Q 1875 0 1609 259 
Q 1344 519 1344 1153 
L 1344 3053 
L 409 3053 
L 409 3500 
L 1344 3500 
L 1344 4494 
L 1919 4494 
z
" transform="scale(0.015625)"/>
      <path id="DejaVuSansMono-5f" d="M 3853 -1259 
L 3853 -1509 
L 0 -1509 
L 0 -1259 
L 3853 -1259 
z
" transform="scale(0.015625)"/>
      <path id="DejaVuSansMono-6e" d="M 3284 2169 
L 3284 0 
L 2706 0 
L 2706 2169 
Q 2706 2641 2540 2862 
Q 2375 3084 2022 3084 
Q 1619 3084 1401 2798 
Q 1184 2513 1184 1978 
L 1184 0 
L 609 0 
L 609 3500 
L 1184 3500 
L 1184 2975 
Q 1338 3275 1600 3429 
Q 1863 3584 2222 3584 
Q 2756 3584 3020 3232 
Q 3284 2881 3284 2169 
z
" transform="scale(0.015625)"/>
     </defs>
     <use xlink:href="#DejaVuSansMono-72"/>
     <use xlink:href="#DejaVuSansMono-73" transform="translate(60.205078 0)"/>
     <use xlink:href="#DejaVuSansMono-74" transform="translate(120.410156 0)"/>
     <use xlink:href="#DejaVuSansMono-5f" transform="translate(180.615234 0)"/>
     <use xlink:href="#DejaVuSansMono-6e" transform="translate(240.820312 0)"/>
    </g>
   </g>
   <g id="line2d_13">
    <path d="M 152.478505 120.275087 
L 237.936449 120.275087 
L 237.936449 120.275087 
L 323.394393 120.275087 
L 323.394393 120.275087 
L 408.852336 120.275087 
L 408.852336 94.006499 
L 494.31028 94.006499 
L 494.31028 94.006499 
L 579.768224 94.006499 
L 579.768224 94.006499 
L 665.226168 94.006499 
L 665.226168 120.275087 
L 750.684112 120.275087 
L 750.684112 120.275087 
L 836.142056 120.275087 
L 836.142056 120.275087 
L 921.6 120.275087 
L 921.6 120.275087 
" clip-path="url(#pedc537649a)" style="fill: none; stroke: #08306b; stroke-width: 1.8; stroke-linecap: square"/>
   </g>
   <g id="text_12">
    <!-- we -->
    <g transform="translate(68.944011 110.205324) scale(0.11 -0.11)">
     <defs>
      <path id="DejaVuSansMono-77" d="M 0 3500 
L 569 3500 
L 1178 672 
L 1678 2478 
L 2169 2478 
L 2675 672 
L 3284 3500 
L 3853 3500 
L 3034 0 
L 2484 0 
L 1925 1919 
L 1369 0 
L 819 0 
L 0 3500 
z
" transform="scale(0.015625)"/>
      <path id="DejaVuSansMono-65" d="M 3475 1894 
L 3475 1613 
L 984 1613 
L 984 1594 
Q 984 1022 1282 709 
Q 1581 397 2125 397 
Q 2400 397 2700 484 
Q 3000 572 3341 750 
L 3341 178 
Q 3013 44 2708 -23 
Q 2403 -91 2119 -91 
Q 1303 -91 843 398 
Q 384 888 384 1747 
Q 384 2584 834 3084 
Q 1284 3584 2034 3584 
Q 2703 3584 3089 3131 
Q 3475 2678 3475 1894 
z
M 2900 2063 
Q 2888 2569 2661 2833 
Q 2434 3097 2009 3097 
Q 1594 3097 1325 2822 
Q 1056 2547 1006 2059 
L 2900 2063 
z
" transform="scale(0.015625)"/>
     </defs>
     <use xlink:href="#DejaVuSansMono-77"/>
     <use xlink:href="#DejaVuSansMono-65" transform="translate(60.205078 0)"/>
    </g>
   </g>
   <g id="text_13">
    <!-- waddr -->
    <g transform="translate(59.010496 156.540195) scale(0.11 -0.11)">
     <defs>
      <path id="DejaVuSansMono-61" d="M 2194 1759 
L 2003 1759 
Q 1500 1759 1245 1582 
Q 991 1406 991 1056 
Q 991 741 1181 566 
Q 1372 391 1709 391 
Q 2184 391 2456 720 
Q 2728 1050 2731 1631 
L 2731 1759 
L 2194 1759 
z
M 3309 1997 
L 3309 0 
L 2731 0 
L 2731 519 
Q 2547 206 2267 57 
Q 1988 -91 1588 -91 
Q 1053 -91 734 211 
Q 416 513 416 1019 
Q 416 1603 808 1906 
Q 1200 2209 1959 2209 
L 2731 2209 
L 2731 2300 
Q 2728 2719 2518 2908 
Q 2309 3097 1850 3097 
Q 1556 3097 1256 3012 
Q 956 2928 672 2766 
L 672 3341 
Q 991 3463 1283 3523 
Q 1575 3584 1850 3584 
Q 2284 3584 2592 3456 
Q 2900 3328 3091 3072 
Q 3209 2916 3259 2686 
Q 3309 2456 3309 1997 
z
" transform="scale(0.015625)"/>
      <path id="DejaVuSansMono-64" d="M 2681 3053 
L 2681 4863 
L 3256 4863 
L 3256 0 
L 2681 0 
L 2681 441 
Q 2538 181 2298 45 
Q 2059 -91 1747 -91 
Q 1113 -91 748 401 
Q 384 894 384 1759 
Q 384 2613 750 3098 
Q 1116 3584 1747 3584 
Q 2063 3584 2303 3448 
Q 2544 3313 2681 3053 
z
M 991 1747 
Q 991 1078 1203 737 
Q 1416 397 1831 397 
Q 2247 397 2464 740 
Q 2681 1084 2681 1747 
Q 2681 2413 2464 2755 
Q 2247 3097 1831 3097 
Q 1416 3097 1203 2756 
Q 991 2416 991 1747 
z
" transform="scale(0.015625)"/>
     </defs>
     <use xlink:href="#DejaVuSansMono-77"/>
     <use xlink:href="#DejaVuSansMono-61" transform="translate(60.205078 0)"/>
     <use xlink:href="#DejaVuSansMono-64" transform="translate(120.410156 0)"/>
     <use xlink:href="#DejaVuSansMono-64" transform="translate(180.615234 0)"/>
     <use xlink:href="#DejaVuSansMono-72" transform="translate(240.820312 0)"/>
    </g>
   </g>
   <g id="line2d_14">
    <path d="M 152.478505 140.341369 
L 408.852336 140.341369 
" clip-path="url(#pedc537649a)" style="fill: none; stroke: #08306b; stroke-width: 1.7; stroke-linecap: square"/>
   </g>
   <g id="line2d_15">
    <path d="M 152.478505 166.609957 
L 408.852336 166.609957 
" clip-path="url(#pedc537649a)" style="fill: none; stroke: #08306b; stroke-width: 1.7; stroke-linecap: square"/>
   </g>
   <g id="line2d_16">
    <path d="M 152.478505 166.609957 
L 152.478505 140.341369 
" clip-path="url(#pedc537649a)" style="fill: none; stroke: #08306b; stroke-width: 1.2; stroke-linecap: square"/>
   </g>
   <g id="line2d_17">
    <path d="M 408.852336 166.609957 
L 408.852336 140.341369 
" clip-path="url(#pedc537649a)" style="fill: none; stroke: #08306b; stroke-width: 1.2; stroke-linecap: square"/>
   </g>
   <g id="text_14">
    <!-- 0 -->
    <g style="fill: #08306b" transform="translate(278.106788 155.84371) scale(0.085 -0.085)">
     <defs>
      <path id="DejaVuSansMono-30" d="M 1509 2344 
Q 1509 2516 1629 2641 
Q 1750 2766 1919 2766 
Q 2094 2766 2219 2641 
Q 2344 2516 2344 2344 
Q 2344 2169 2220 2047 
Q 2097 1925 1919 1925 
Q 1744 1925 1626 2044 
Q 1509 2163 1509 2344 
z
M 1925 4250 
Q 1484 4250 1267 3775 
Q 1050 3300 1050 2328 
Q 1050 1359 1267 884 
Q 1484 409 1925 409 
Q 2369 409 2586 884 
Q 2803 1359 2803 2328 
Q 2803 3300 2586 3775 
Q 2369 4250 1925 4250 
z
M 1925 4750 
Q 2672 4750 3055 4137 
Q 3438 3525 3438 2328 
Q 3438 1134 3055 521 
Q 2672 -91 1925 -91 
Q 1178 -91 797 521 
Q 416 1134 416 2328 
Q 416 3525 797 4137 
Q 1178 4750 1925 4750 
z
" transform="scale(0.015625)"/>
     </defs>
     <use xlink:href="#DejaVuSansMono-30"/>
    </g>
   </g>
   <g id="line2d_18">
    <path d="M 408.852336 140.341369 
L 494.31028 140.341369 
" clip-path="url(#pedc537649a)" style="fill: none; stroke: #08306b; stroke-width: 1.7; stroke-linecap: square"/>
   </g>
   <g id="line2d_19">
    <path d="M 408.852336 166.609957 
L 494.31028 166.609957 
" clip-path="url(#pedc537649a)" style="fill: none; stroke: #08306b; stroke-width: 1.7; stroke-linecap: square"/>
   </g>
   <g id="line2d_20">
    <path d="M 408.852336 166.609957 
L 408.852336 140.341369 
" clip-path="url(#pedc537649a)" style="fill: none; stroke: #08306b; stroke-width: 1.2; stroke-linecap: square"/>
   </g>
   <g id="line2d_21">
    <path d="M 494.31028 166.609957 
L 494.31028 140.341369 
" clip-path="url(#pedc537649a)" style="fill: none; stroke: #08306b; stroke-width: 1.2; stroke-linecap: square"/>
   </g>
   <g id="text_15">
    <!-- 5 -->
    <g style="fill: #08306b" transform="translate(449.022676 155.84371) scale(0.085 -0.085)">
     <defs>
      <path id="DejaVuSansMono-35" d="M 647 4666 
L 3009 4666 
L 3009 4134 
L 1222 4134 
L 1222 2988 
Q 1356 3038 1492 3061 
Q 1628 3084 1766 3084 
Q 2491 3084 2916 2656 
Q 3341 2228 3341 1497 
Q 3341 759 2895 334 
Q 2450 -91 1678 -91 
Q 1306 -91 998 -41 
Q 691 9 447 109 
L 447 750 
Q 734 594 1025 517 
Q 1316 441 1619 441 
Q 2141 441 2423 716 
Q 2706 991 2706 1497 
Q 2706 1997 2414 2275 
Q 2122 2553 1600 2553 
Q 1347 2553 1106 2495 
Q 866 2438 647 2322 
L 647 4666 
z
" transform="scale(0.015625)"/>
     </defs>
     <use xlink:href="#DejaVuSansMono-35"/>
    </g>
   </g>
   <g id="line2d_22">
    <path d="M 494.31028 140.341369 
L 579.768224 140.341369 
" clip-path="url(#pedc537649a)" style="fill: none; stroke: #08306b; stroke-width: 1.7; stroke-linecap: square"/>
   </g>
   <g id="line2d_23">
    <path d="M 494.31028 166.609957 
L 579.768224 166.609957 
" clip-path="url(#pedc537649a)" style="fill: none; stroke: #08306b; stroke-width: 1.7; stroke-linecap: square"/>
   </g>
   <g id="line2d_24">
    <path d="M 494.31028 166.609957 
L 494.31028 140.341369 
" clip-path="url(#pedc537649a)" style="fill: none; stroke: #08306b; stroke-width: 1.2; stroke-linecap: square"/>
   </g>
   <g id="line2d_25">
    <path d="M 579.768224 166.609957 
L 579.768224 140.341369 
" clip-path="url(#pedc537649a)" style="fill: none; stroke: #08306b; stroke-width: 1.2; stroke-linecap: square"/>
   </g>
   <g id="text_16">
    <!-- 10 -->
    <g style="fill: #08306b" transform="translate(531.921987 155.84371) scale(0.085 -0.085)">
     <defs>
      <path id="DejaVuSansMono-31" d="M 844 531 
L 1825 531 
L 1825 4097 
L 769 3859 
L 769 4434 
L 1819 4666 
L 2450 4666 
L 2450 531 
L 3419 531 
L 3419 0 
L 844 0 
L 844 531 
z
" transform="scale(0.015625)"/>
     </defs>
     <use xlink:href="#DejaVuSansMono-31"/>
     <use xlink:href="#DejaVuSansMono-30" transform="translate(60.205078 0)"/>
    </g>
   </g>
   <g id="line2d_26">
    <path d="M 579.768224 140.341369 
L 921.6 140.341369 
" clip-path="url(#pedc537649a)" style="fill: none; stroke: #08306b; stroke-width: 1.7; stroke-linecap: square"/>
   </g>
   <g id="line2d_27">
    <path d="M 579.768224 166.609957 
L 921.6 166.609957 
" clip-path="url(#pedc537649a)" style="fill: none; stroke: #08306b; stroke-width: 1.7; stroke-linecap: square"/>
   </g>
   <g id="line2d_28">
    <path d="M 579.768224 166.609957 
L 579.768224 140.341369 
" clip-path="url(#pedc537649a)" style="fill: none; stroke: #08306b; stroke-width: 1.2; stroke-linecap: square"/>
   </g>
   <g id="line2d_29">
    <path d="M 921.6 166.609957 
L 921.6 140.341369 
" clip-path="url(#pedc537649a)" style="fill: none; stroke: #08306b; stroke-width: 1.2; stroke-linecap: square"/>
   </g>
   <g id="text_17">
    <!-- 0 -->
    <g style="fill: #08306b" transform="translate(748.125479 155.84371) scale(0.085 -0.085)">
     <use xlink:href="#DejaVuSansMono-30"/>
    </g>
   </g>
   <g id="text_18">
    <!-- wdata -->
    <g transform="translate(59.010496 202.875065) scale(0.11 -0.11)">
     <use xlink:href="#DejaVuSansMono-77"/>
     <use xlink:href="#DejaVuSansMono-64" transform="translate(60.205078 0)"/>
     <use xlink:href="#DejaVuSansMono-61" transform="translate(120.410156 0)"/>
     <use xlink:href="#DejaVuSansMono-74" transform="translate(180.615234 0)"/>
     <use xlink:href="#DejaVuSansMono-61" transform="translate(240.820312 0)"/>
    </g>
   </g>
   <g id="line2d_30">
    <path d="M 152.478505 186.67624 
L 408.852336 186.67624 
" clip-path="url(#pedc537649a)" style="fill: none; stroke: #08306b; stroke-width: 1.7; stroke-linecap: square"/>
   </g>
   <g id="line2d_31">
    <path d="M 152.478505 212.944828 
L 408.852336 212.944828 
" clip-path="url(#pedc537649a)" style="fill: none; stroke: #08306b; stroke-width: 1.7; stroke-linecap: square"/>
   </g>
   <g id="line2d_32">
    <path d="M 152.478505 212.944828 
L 152.478505 186.67624 
" clip-path="url(#pedc537649a)" style="fill: none; stroke: #08306b; stroke-width: 1.2; stroke-linecap: square"/>
   </g>
   <g id="line2d_33">
    <path d="M 408.852336 212.944828 
L 408.852336 186.67624 
" clip-path="url(#pedc537649a)" style="fill: none; stroke: #08306b; stroke-width: 1.2; stroke-linecap: square"/>
   </g>
   <g id="text_19">
    <!-- 0x00000000 -->
    <g style="fill: #08306b" transform="translate(255.079092 202.17858) scale(0.085 -0.085)">
     <defs>
      <path id="DejaVuSansMono-78" d="M 3494 3500 
L 2241 1825 
L 3616 0 
L 2950 0 
L 1925 1403 
L 903 0 
L 238 0 
L 1613 1825 
L 359 3500 
L 997 3500 
L 1925 2234 
L 2847 3500 
L 3494 3500 
z
" transform="scale(0.015625)"/>
     </defs>
     <use xlink:href="#DejaVuSansMono-30"/>
     <use xlink:href="#DejaVuSansMono-78" transform="translate(60.205078 0)"/>
     <use xlink:href="#DejaVuSansMono-30" transform="translate(120.410156 0)"/>
     <use xlink:href="#DejaVuSansMono-30" transform="translate(180.615234 0)"/>
     <use xlink:href="#DejaVuSansMono-30" transform="translate(240.820312 0)"/>
     <use xlink:href="#DejaVuSansMono-30" transform="translate(301.025391 0)"/>
     <use xlink:href="#DejaVuSansMono-30" transform="translate(361.230469 0)"/>
     <use xlink:href="#DejaVuSansMono-30" transform="translate(421.435547 0)"/>
     <use xlink:href="#DejaVuSansMono-30" transform="translate(481.640625 0)"/>
     <use xlink:href="#DejaVuSansMono-30" transform="translate(541.845703 0)"/>
    </g>
   </g>
   <g id="line2d_34">
    <path d="M 408.852336 186.67624 
L 494.31028 186.67624 
" clip-path="url(#pedc537649a)" style="fill: none; stroke: #08306b; stroke-width: 1.7; stroke-linecap: square"/>
   </g>
   <g id="line2d_35">
    <path d="M 408.852336 212.944828 
L 494.31028 212.944828 
" clip-path="url(#pedc537649a)" style="fill: none; stroke: #08306b; stroke-width: 1.7; stroke-linecap: square"/>
   </g>
   <g id="line2d_36">
    <path d="M 408.852336 212.944828 
L 408.852336 186.67624 
" clip-path="url(#pedc537649a)" style="fill: none; stroke: #08306b; stroke-width: 1.2; stroke-linecap: square"/>
   </g>
   <g id="line2d_37">
    <path d="M 494.31028 212.944828 
L 494.31028 186.67624 
" clip-path="url(#pedc537649a)" style="fill: none; stroke: #08306b; stroke-width: 1.2; stroke-linecap: square"/>
   </g>
   <g id="text_20">
    <!-- 0x000000AA -->
    <g style="fill: #08306b" transform="translate(425.99498 202.17858) scale(0.085 -0.085)">
     <defs>
      <path id="DejaVuSansMono-41" d="M 1925 4109 
L 1259 1722 
L 2591 1722 
L 1925 4109 
z
M 1544 4666 
L 2309 4666 
L 3738 0 
L 3084 0 
L 2741 1216 
L 1106 1216 
L 769 0 
L 116 0 
L 1544 4666 
z
" transform="scale(0.015625)"/>
     </defs>
     <use xlink:href="#DejaVuSansMono-30"/>
     <use xlink:href="#DejaVuSansMono-78" transform="translate(60.205078 0)"/>
     <use xlink:href="#DejaVuSansMono-30" transform="translate(120.410156 0)"/>
     <use xlink:href="#DejaVuSansMono-30" transform="translate(180.615234 0)"/>
     <use xlink:href="#DejaVuSansMono-30" transform="translate(240.820312 0)"/>
     <use xlink:href="#DejaVuSansMono-30" transform="translate(301.025391 0)"/>
     <use xlink:href="#DejaVuSansMono-30" transform="translate(361.230469 0)"/>
     <use xlink:href="#DejaVuSansMono-30" transform="translate(421.435547 0)"/>
     <use xlink:href="#DejaVuSansMono-41" transform="translate(481.640625 0)"/>
     <use xlink:href="#DejaVuSansMono-41" transform="translate(541.845703 0)"/>
    </g>
   </g>
   <g id="line2d_38">
    <path d="M 494.31028 186.67624 
L 579.768224 186.67624 
" clip-path="url(#pedc537649a)" style="fill: none; stroke: #08306b; stroke-width: 1.7; stroke-linecap: square"/>
   </g>
   <g id="line2d_39">
    <path d="M 494.31028 212.944828 
L 579.768224 212.944828 
" clip-path="url(#pedc537649a)" style="fill: none; stroke: #08306b; stroke-width: 1.7; stroke-linecap: square"/>
   </g>
   <g id="line2d_40">
    <path d="M 494.31028 212.944828 
L 494.31028 186.67624 
" clip-path="url(#pedc537649a)" style="fill: none; stroke: #08306b; stroke-width: 1.2; stroke-linecap: square"/>
   </g>
   <g id="line2d_41">
    <path d="M 579.768224 212.944828 
L 579.768224 186.67624 
" clip-path="url(#pedc537649a)" style="fill: none; stroke: #08306b; stroke-width: 1.2; stroke-linecap: square"/>
   </g>
   <g id="text_21">
    <!-- 0x000000BB -->
    <g style="fill: #08306b" transform="translate(511.452924 202.17858) scale(0.085 -0.085)">
     <defs>
      <path id="DejaVuSansMono-42" d="M 1153 2228 
L 1153 519 
L 1900 519 
Q 2450 519 2684 711 
Q 2919 903 2919 1344 
Q 2919 1800 2672 2014 
Q 2425 2228 1900 2228 
L 1153 2228 
z
M 1153 4147 
L 1153 2741 
L 1888 2741 
Q 2344 2741 2548 2916 
Q 2753 3091 2753 3481 
Q 2753 3834 2551 3990 
Q 2350 4147 1888 4147 
L 1153 4147 
z
M 519 4666 
L 1900 4666 
Q 2616 4666 3003 4356 
Q 3391 4047 3391 3481 
Q 3391 3053 3186 2806 
Q 2981 2559 2572 2497 
Q 3031 2428 3292 2104 
Q 3553 1781 3553 1281 
Q 3553 647 3137 323 
Q 2722 0 1900 0 
L 519 0 
L 519 4666 
z
" transform="scale(0.015625)"/>
     </defs>
     <use xlink:href="#DejaVuSansMono-30"/>
     <use xlink:href="#DejaVuSansMono-78" transform="translate(60.205078 0)"/>
     <use xlink:href="#DejaVuSansMono-30" transform="translate(120.410156 0)"/>
     <use xlink:href="#DejaVuSansMono-30" transform="translate(180.615234 0)"/>
     <use xlink:href="#DejaVuSansMono-30" transform="translate(240.820312 0)"/>
     <use xlink:href="#DejaVuSansMono-30" transform="translate(301.025391 0)"/>
     <use xlink:href="#DejaVuSansMono-30" transform="translate(361.230469 0)"/>
     <use xlink:href="#DejaVuSansMono-30" transform="translate(421.435547 0)"/>
     <use xlink:href="#DejaVuSansMono-42" transform="translate(481.640625 0)"/>
     <use xlink:href="#DejaVuSansMono-42" transform="translate(541.845703 0)"/>
    </g>
   </g>
   <g id="line2d_42">
    <path d="M 579.768224 186.67624 
L 921.6 186.67624 
" clip-path="url(#pedc537649a)" style="fill: none; stroke: #08306b; stroke-width: 1.7; stroke-linecap: square"/>
   </g>
   <g id="line2d_43">
    <path d="M 579.768224 212.944828 
L 921.6 212.944828 
" clip-path="url(#pedc537649a)" style="fill: none; stroke: #08306b; stroke-width: 1.7; stroke-linecap: square"/>
   </g>
   <g id="line2d_44">
    <path d="M 579.768224 212.944828 
L 579.768224 186.67624 
" clip-path="url(#pedc537649a)" style="fill: none; stroke: #08306b; stroke-width: 1.2; stroke-linecap: square"/>
   </g>
   <g id="line2d_45">
    <path d="M 921.6 212.944828 
L 921.6 186.67624 
" clip-path="url(#pedc537649a)" style="fill: none; stroke: #08306b; stroke-width: 1.2; stroke-linecap: square"/>
   </g>
   <g id="text_22">
    <!-- 0x000000CC -->
    <g style="fill: #08306b" transform="translate(725.097784 202.17858) scale(0.085 -0.085)">
     <defs>
      <path id="DejaVuSansMono-43" d="M 3353 166 
Q 3113 38 2859 -26 
Q 2606 -91 2322 -91 
Q 1425 -91 929 543 
Q 434 1178 434 2328 
Q 434 3472 932 4111 
Q 1431 4750 2322 4750 
Q 2606 4750 2859 4686 
Q 3113 4622 3353 4494 
L 3353 3847 
Q 3122 4038 2856 4138 
Q 2591 4238 2322 4238 
Q 1706 4238 1400 3763 
Q 1094 3288 1094 2328 
Q 1094 1372 1400 897 
Q 1706 422 2322 422 
Q 2597 422 2861 522 
Q 3125 622 3353 813 
L 3353 166 
z
" transform="scale(0.015625)"/>
     </defs>
     <use xlink:href="#DejaVuSansMono-30"/>
     <use xlink:href="#DejaVuSansMono-78" transform="translate(60.205078 0)"/>
     <use xlink:href="#DejaVuSansMono-30" transform="translate(120.410156 0)"/>
     <use xlink:href="#DejaVuSansMono-30" transform="translate(180.615234 0)"/>
     <use xlink:href="#DejaVuSansMono-30" transform="translate(240.820312 0)"/>
     <use xlink:href="#DejaVuSansMono-30" transform="translate(301.025391 0)"/>
     <use xlink:href="#DejaVuSansMono-30" transform="translate(361.230469 0)"/>
     <use xlink:href="#DejaVuSansMono-30" transform="translate(421.435547 0)"/>
     <use xlink:href="#DejaVuSansMono-43" transform="translate(481.640625 0)"/>
     <use xlink:href="#DejaVuSansMono-43" transform="translate(541.845703 0)"/>
    </g>
   </g>
   <g id="text_23">
    <!-- raddr1 -->
    <g transform="translate(55.699324 249.209935) scale(0.11 -0.11)">
     <use xlink:href="#DejaVuSansMono-72"/>
     <use xlink:href="#DejaVuSansMono-61" transform="translate(60.205078 0)"/>
     <use xlink:href="#DejaVuSansMono-64" transform="translate(120.410156 0)"/>
     <use xlink:href="#DejaVuSansMono-64" transform="translate(180.615234 0)"/>
     <use xlink:href="#DejaVuSansMono-72" transform="translate(240.820312 0)"/>
     <use xlink:href="#DejaVuSansMono-31" transform="translate(301.025391 0)"/>
    </g>
   </g>
   <g id="line2d_46">
    <path d="M 152.478505 233.01111 
L 665.226168 233.01111 
" clip-path="url(#pedc537649a)" style="fill: none; stroke: #08306b; stroke-width: 1.7; stroke-linecap: square"/>
   </g>
   <g id="line2d_47">
    <path d="M 152.478505 259.279698 
L 665.226168 259.279698 
" clip-path="url(#pedc537649a)" style="fill: none; stroke: #08306b; stroke-width: 1.7; stroke-linecap: square"/>
   </g>
   <g id="line2d_48">
    <path d="M 152.478505 259.279698 
L 152.478505 233.01111 
" clip-path="url(#pedc537649a)" style="fill: none; stroke: #08306b; stroke-width: 1.2; stroke-linecap: square"/>
   </g>
   <g id="line2d_49">
    <path d="M 665.226168 259.279698 
L 665.226168 233.01111 
" clip-path="url(#pedc537649a)" style="fill: none; stroke: #08306b; stroke-width: 1.2; stroke-linecap: square"/>
   </g>
   <g id="text_24">
    <!-- 5 -->
    <g style="fill: #08306b" transform="translate(406.293704 248.513451) scale(0.085 -0.085)">
     <use xlink:href="#DejaVuSansMono-35"/>
    </g>
   </g>
   <g id="line2d_50">
    <path d="M 665.226168 233.01111 
L 750.684112 233.01111 
" clip-path="url(#pedc537649a)" style="fill: none; stroke: #08306b; stroke-width: 1.7; stroke-linecap: square"/>
   </g>
   <g id="line2d_51">
    <path d="M 665.226168 259.279698 
L 750.684112 259.279698 
" clip-path="url(#pedc537649a)" style="fill: none; stroke: #08306b; stroke-width: 1.7; stroke-linecap: square"/>
   </g>
   <g id="line2d_52">
    <path d="M 665.226168 259.279698 
L 665.226168 233.01111 
" clip-path="url(#pedc537649a)" style="fill: none; stroke: #08306b; stroke-width: 1.2; stroke-linecap: square"/>
   </g>
   <g id="line2d_53">
    <path d="M 750.684112 259.279698 
L 750.684112 233.01111 
" clip-path="url(#pedc537649a)" style="fill: none; stroke: #08306b; stroke-width: 1.2; stroke-linecap: square"/>
   </g>
   <g id="text_25">
    <!-- 0 -->
    <g style="fill: #08306b" transform="translate(705.396507 248.513451) scale(0.085 -0.085)">
     <use xlink:href="#DejaVuSansMono-30"/>
    </g>
   </g>
   <g id="line2d_54">
    <path d="M 750.684112 233.01111 
L 921.6 233.01111 
" clip-path="url(#pedc537649a)" style="fill: none; stroke: #08306b; stroke-width: 1.7; stroke-linecap: square"/>
   </g>
   <g id="line2d_55">
    <path d="M 750.684112 259.279698 
L 921.6 259.279698 
" clip-path="url(#pedc537649a)" style="fill: none; stroke: #08306b; stroke-width: 1.7; stroke-linecap: square"/>
   </g>
   <g id="line2d_56">
    <path d="M 750.684112 259.279698 
L 750.684112 233.01111 
" clip-path="url(#pedc537649a)" style="fill: none; stroke: #08306b; stroke-width: 1.2; stroke-linecap: square"/>
   </g>
   <g id="line2d_57">
    <path d="M 921.6 259.279698 
L 921.6 233.01111 
" clip-path="url(#pedc537649a)" style="fill: none; stroke: #08306b; stroke-width: 1.2; stroke-linecap: square"/>
   </g>
   <g id="text_26">
    <!-- 5 -->
    <g style="fill: #08306b" transform="translate(833.583423 248.513451) scale(0.085 -0.085)">
     <use xlink:href="#DejaVuSansMono-35"/>
    </g>
   </g>
   <g id="text_27">
    <!-- rdata1 -->
    <g transform="translate(55.699324 295.544805) scale(0.11 -0.11)">
     <use xlink:href="#DejaVuSansMono-72"/>
     <use xlink:href="#DejaVuSansMono-64" transform="translate(60.205078 0)"/>
     <use xlink:href="#DejaVuSansMono-61" transform="translate(120.410156 0)"/>
     <use xlink:href="#DejaVuSansMono-74" transform="translate(180.615234 0)"/>
     <use xlink:href="#DejaVuSansMono-61" transform="translate(240.820312 0)"/>
     <use xlink:href="#DejaVuSansMono-31" transform="translate(301.025391 0)"/>
    </g>
   </g>
   <g id="line2d_58">
    <path d="M 152.478505 279.34598 
L 494.31028 279.34598 
" clip-path="url(#pedc537649a)" style="fill: none; stroke: #08306b; stroke-width: 1.7; stroke-linecap: square"/>
   </g>
   <g id="line2d_59">
    <path d="M 152.478505 305.614568 
L 494.31028 305.614568 
" clip-path="url(#pedc537649a)" style="fill: none; stroke: #08306b; stroke-width: 1.7; stroke-linecap: square"/>
   </g>
   <g id="line2d_60">
    <path d="M 152.478505 305.614568 
L 152.478505 279.34598 
" clip-path="url(#pedc537649a)" style="fill: none; stroke: #08306b; stroke-width: 1.2; stroke-linecap: square"/>
   </g>
   <g id="line2d_61">
    <path d="M 494.31028 305.614568 
L 494.31028 279.34598 
" clip-path="url(#pedc537649a)" style="fill: none; stroke: #08306b; stroke-width: 1.2; stroke-linecap: square"/>
   </g>
   <g id="text_28">
    <!-- 0x00000000 -->
    <g style="fill: #08306b" transform="translate(297.808064 294.848321) scale(0.085 -0.085)">
     <use xlink:href="#DejaVuSansMono-30"/>
     <use xlink:href="#DejaVuSansMono-78" transform="translate(60.205078 0)"/>
     <use xlink:href="#DejaVuSansMono-30" transform="translate(120.410156 0)"/>
     <use xlink:href="#DejaVuSansMono-30" transform="translate(180.615234 0)"/>
     <use xlink:href="#DejaVuSansMono-30" transform="translate(240.820312 0)"/>
     <use xlink:href="#DejaVuSansMono-30" transform="translate(301.025391 0)"/>
     <use xlink:href="#DejaVuSansMono-30" transform="translate(361.230469 0)"/>
     <use xlink:href="#DejaVuSansMono-30" transform="translate(421.435547 0)"/>
     <use xlink:href="#DejaVuSansMono-30" transform="translate(481.640625 0)"/>
     <use xlink:href="#DejaVuSansMono-30" transform="translate(541.845703 0)"/>
    </g>
   </g>
   <g id="line2d_62">
    <path d="M 494.31028 279.34598 
L 665.226168 279.34598 
" clip-path="url(#pedc537649a)" style="fill: none; stroke: #08306b; stroke-width: 1.7; stroke-linecap: square"/>
   </g>
   <g id="line2d_63">
    <path d="M 494.31028 305.614568 
L 665.226168 305.614568 
" clip-path="url(#pedc537649a)" style="fill: none; stroke: #08306b; stroke-width: 1.7; stroke-linecap: square"/>
   </g>
   <g id="line2d_64">
    <path d="M 494.31028 305.614568 
L 494.31028 279.34598 
" clip-path="url(#pedc537649a)" style="fill: none; stroke: #08306b; stroke-width: 1.2; stroke-linecap: square"/>
   </g>
   <g id="line2d_65">
    <path d="M 665.226168 305.614568 
L 665.226168 279.34598 
" clip-path="url(#pedc537649a)" style="fill: none; stroke: #08306b; stroke-width: 1.2; stroke-linecap: square"/>
   </g>
   <g id="text_29">
    <!-- 0x000000AA -->
    <g style="fill: #08306b" transform="translate(554.181896 294.848321) scale(0.085 -0.085)">
     <use xlink:href="#DejaVuSansMono-30"/>
     <use xlink:href="#DejaVuSansMono-78" transform="translate(60.205078 0)"/>
     <use xlink:href="#DejaVuSansMono-30" transform="translate(120.410156 0)"/>
     <use xlink:href="#DejaVuSansMono-30" transform="translate(180.615234 0)"/>
     <use xlink:href="#DejaVuSansMono-30" transform="translate(240.820312 0)"/>
     <use xlink:href="#DejaVuSansMono-30" transform="translate(301.025391 0)"/>
     <use xlink:href="#DejaVuSansMono-30" transform="translate(361.230469 0)"/>
     <use xlink:href="#DejaVuSansMono-30" transform="translate(421.435547 0)"/>
     <use xlink:href="#DejaVuSansMono-41" transform="translate(481.640625 0)"/>
     <use xlink:href="#DejaVuSansMono-41" transform="translate(541.845703 0)"/>
    </g>
   </g>
   <g id="line2d_66">
    <path d="M 665.226168 279.34598 
L 750.684112 279.34598 
" clip-path="url(#pedc537649a)" style="fill: none; stroke: #08306b; stroke-width: 1.7; stroke-linecap: square"/>
   </g>
   <g id="line2d_67">
    <path d="M 665.226168 305.614568 
L 750.684112 305.614568 
" clip-path="url(#pedc537649a)" style="fill: none; stroke: #08306b; stroke-width: 1.7; stroke-linecap: square"/>
   </g>
   <g id="line2d_68">
    <path d="M 665.226168 305.614568 
L 665.226168 279.34598 
" clip-path="url(#pedc537649a)" style="fill: none; stroke: #08306b; stroke-width: 1.2; stroke-linecap: square"/>
   </g>
   <g id="line2d_69">
    <path d="M 750.684112 305.614568 
L 750.684112 279.34598 
" clip-path="url(#pedc537649a)" style="fill: none; stroke: #08306b; stroke-width: 1.2; stroke-linecap: square"/>
   </g>
   <g id="text_30">
    <!-- 0x00000000 -->
    <g style="fill: #08306b" transform="translate(682.368812 294.848321) scale(0.085 -0.085)">
     <use xlink:href="#DejaVuSansMono-30"/>
     <use xlink:href="#DejaVuSansMono-78" transform="translate(60.205078 0)"/>
     <use xlink:href="#DejaVuSansMono-30" transform="translate(120.410156 0)"/>
     <use xlink:href="#DejaVuSansMono-30" transform="translate(180.615234 0)"/>
     <use xlink:href="#DejaVuSansMono-30" transform="translate(240.820312 0)"/>
     <use xlink:href="#DejaVuSansMono-30" transform="translate(301.025391 0)"/>
     <use xlink:href="#DejaVuSansMono-30" transform="translate(361.230469 0)"/>
     <use xlink:href="#DejaVuSansMono-30" transform="translate(421.435547 0)"/>
     <use xlink:href="#DejaVuSansMono-30" transform="translate(481.640625 0)"/>
     <use xlink:href="#DejaVuSansMono-30" transform="translate(541.845703 0)"/>
    </g>
   </g>
   <g id="line2d_70">
    <path d="M 750.684112 279.34598 
L 921.6 279.34598 
" clip-path="url(#pedc537649a)" style="fill: none; stroke: #08306b; stroke-width: 1.7; stroke-linecap: square"/>
   </g>
   <g id="line2d_71">
    <path d="M 750.684112 305.614568 
L 921.6 305.614568 
" clip-path="url(#pedc537649a)" style="fill: none; stroke: #08306b; stroke-width: 1.7; stroke-linecap: square"/>
   </g>
   <g id="line2d_72">
    <path d="M 750.684112 305.614568 
L 750.684112 279.34598 
" clip-path="url(#pedc537649a)" style="fill: none; stroke: #08306b; stroke-width: 1.2; stroke-linecap: square"/>
   </g>
   <g id="line2d_73">
    <path d="M 921.6 305.614568 
L 921.6 279.34598 
" clip-path="url(#pedc537649a)" style="fill: none; stroke: #08306b; stroke-width: 1.2; stroke-linecap: square"/>
   </g>
   <g id="text_31">
    <!-- 0x000000AA -->
    <g style="fill: #08306b" transform="translate(810.555728 294.848321) scale(0.085 -0.085)">
     <use xlink:href="#DejaVuSansMono-30"/>
     <use xlink:href="#DejaVuSansMono-78" transform="translate(60.205078 0)"/>
     <use xlink:href="#DejaVuSansMono-30" transform="translate(120.410156 0)"/>
     <use xlink:href="#DejaVuSansMono-30" transform="translate(180.615234 0)"/>
     <use xlink:href="#DejaVuSansMono-30" transform="translate(240.820312 0)"/>
     <use xlink:href="#DejaVuSansMono-30" transform="translate(301.025391 0)"/>
     <use xlink:href="#DejaVuSansMono-30" transform="translate(361.230469 0)"/>
     <use xlink:href="#DejaVuSansMono-30" transform="translate(421.435547 0)"/>
     <use xlink:href="#DejaVuSansMono-41" transform="translate(481.640625 0)"/>
     <use xlink:href="#DejaVuSansMono-41" transform="translate(541.845703 0)"/>
    </g>
   </g>
   <g id="text_32">
    <!-- raddr2 -->
    <g transform="translate(55.699324 341.879676) scale(0.11 -0.11)">
     <defs>
      <path id="DejaVuSansMono-32" d="M 1166 531 
L 3309 531 
L 3309 0 
L 475 0 
L 475 531 
Q 1059 1147 1496 1619 
Q 1934 2091 2100 2284 
Q 2413 2666 2522 2902 
Q 2631 3138 2631 3384 
Q 2631 3775 2401 3997 
Q 2172 4219 1772 4219 
Q 1488 4219 1175 4116 
Q 863 4013 513 3803 
L 513 4441 
Q 834 4594 1145 4672 
Q 1456 4750 1759 4750 
Q 2444 4750 2861 4386 
Q 3278 4022 3278 3431 
Q 3278 3131 3139 2831 
Q 3000 2531 2688 2169 
Q 2513 1966 2180 1606 
Q 1847 1247 1166 531 
z
" transform="scale(0.015625)"/>
     </defs>
     <use xlink:href="#DejaVuSansMono-72"/>
     <use xlink:href="#DejaVuSansMono-61" transform="translate(60.205078 0)"/>
     <use xlink:href="#DejaVuSansMono-64" transform="translate(120.410156 0)"/>
     <use xlink:href="#DejaVuSansMono-64" transform="translate(180.615234 0)"/>
     <use xlink:href="#DejaVuSansMono-72" transform="translate(240.820312 0)"/>
     <use xlink:href="#DejaVuSansMono-32" transform="translate(301.025391 0)"/>
    </g>
   </g>
   <g id="line2d_74">
    <path d="M 152.478505 325.680851 
L 921.6 325.680851 
" clip-path="url(#pedc537649a)" style="fill: none; stroke: #08306b; stroke-width: 1.7; stroke-linecap: square"/>
   </g>
   <g id="line2d_75">
    <path d="M 152.478505 351.949438 
L 921.6 351.949438 
" clip-path="url(#pedc537649a)" style="fill: none; stroke: #08306b; stroke-width: 1.7; stroke-linecap: square"/>
   </g>
   <g id="line2d_76">
    <path d="M 152.478505 351.949438 
L 152.478505 325.680851 
" clip-path="url(#pedc537649a)" style="fill: none; stroke: #08306b; stroke-width: 1.2; stroke-linecap: square"/>
   </g>
   <g id="line2d_77">
    <path d="M 921.6 351.949438 
L 921.6 325.680851 
" clip-path="url(#pedc537649a)" style="fill: none; stroke: #08306b; stroke-width: 1.2; stroke-linecap: square"/>
   </g>
   <g id="text_33">
    <!-- 10 -->
    <g style="fill: #08306b" transform="translate(531.921987 341.183191) scale(0.085 -0.085)">
     <use xlink:href="#DejaVuSansMono-31"/>
     <use xlink:href="#DejaVuSansMono-30" transform="translate(60.205078 0)"/>
    </g>
   </g>
   <g id="text_34">
    <!-- rdata2 -->
    <g transform="translate(55.699324 388.214546) scale(0.11 -0.11)">
     <use xlink:href="#DejaVuSansMono-72"/>
     <use xlink:href="#DejaVuSansMono-64" transform="translate(60.205078 0)"/>
     <use xlink:href="#DejaVuSansMono-61" transform="translate(120.410156 0)"/>
     <use xlink:href="#DejaVuSansMono-74" transform="translate(180.615234 0)"/>
     <use xlink:href="#DejaVuSansMono-61" transform="translate(240.820312 0)"/>
     <use xlink:href="#DejaVuSansMono-32" transform="translate(301.025391 0)"/>
    </g>
   </g>
   <g id="line2d_78">
    <path d="M 152.478505 372.015721 
L 579.768224 372.015721 
" clip-path="url(#pedc537649a)" style="fill: none; stroke: #08306b; stroke-width: 1.7; stroke-linecap: square"/>
   </g>
   <g id="line2d_79">
    <path d="M 152.478505 398.284309 
L 579.768224 398.284309 
" clip-path="url(#pedc537649a)" style="fill: none; stroke: #08306b; stroke-width: 1.7; stroke-linecap: square"/>
   </g>
   <g id="line2d_80">
    <path d="M 152.478505 398.284309 
L 152.478505 372.015721 
" clip-path="url(#pedc537649a)" style="fill: none; stroke: #08306b; stroke-width: 1.2; stroke-linecap: square"/>
   </g>
   <g id="line2d_81">
    <path d="M 579.768224 398.284309 
L 579.768224 372.015721 
" clip-path="url(#pedc537649a)" style="fill: none; stroke: #08306b; stroke-width: 1.2; stroke-linecap: square"/>
   </g>
   <g id="text_35">
    <!-- 0x00000000 -->
    <g style="fill: #08306b" transform="translate(340.537036 387.518062) scale(0.085 -0.085)">
     <use xlink:href="#DejaVuSansMono-30"/>
     <use xlink:href="#DejaVuSansMono-78" transform="translate(60.205078 0)"/>
     <use xlink:href="#DejaVuSansMono-30" transform="translate(120.410156 0)"/>
     <use xlink:href="#DejaVuSansMono-30" transform="translate(180.615234 0)"/>
     <use xlink:href="#DejaVuSansMono-30" transform="translate(240.820312 0)"/>
     <use xlink:href="#DejaVuSansMono-30" transform="translate(301.025391 0)"/>
     <use xlink:href="#DejaVuSansMono-30" transform="translate(361.230469 0)"/>
     <use xlink:href="#DejaVuSansMono-30" transform="translate(421.435547 0)"/>
     <use xlink:href="#DejaVuSansMono-30" transform="translate(481.640625 0)"/>
     <use xlink:href="#DejaVuSansMono-30" transform="translate(541.845703 0)"/>
    </g>
   </g>
   <g id="line2d_82">
    <path d="M 579.768224 372.015721 
L 921.6 372.015721 
" clip-path="url(#pedc537649a)" style="fill: none; stroke: #08306b; stroke-width: 1.7; stroke-linecap: square"/>
   </g>
   <g id="line2d_83">
    <path d="M 579.768224 398.284309 
L 921.6 398.284309 
" clip-path="url(#pedc537649a)" style="fill: none; stroke: #08306b; stroke-width: 1.7; stroke-linecap: square"/>
   </g>
   <g id="line2d_84">
    <path d="M 579.768224 398.284309 
L 579.768224 372.015721 
" clip-path="url(#pedc537649a)" style="fill: none; stroke: #08306b; stroke-width: 1.2; stroke-linecap: square"/>
   </g>
   <g id="line2d_85">
    <path d="M 921.6 398.284309 
L 921.6 372.015721 
" clip-path="url(#pedc537649a)" style="fill: none; stroke: #08306b; stroke-width: 1.2; stroke-linecap: square"/>
   </g>
   <g id="text_36">
    <!-- 0x000000BB -->
    <g style="fill: #08306b" transform="translate(725.097784 387.518062) scale(0.085 -0.085)">
     <use xlink:href="#DejaVuSansMono-30"/>
     <use xlink:href="#DejaVuSansMono-78" transform="translate(60.205078 0)"/>
     <use xlink:href="#DejaVuSansMono-30" transform="translate(120.410156 0)"/>
     <use xlink:href="#DejaVuSansMono-30" transform="translate(180.615234 0)"/>
     <use xlink:href="#DejaVuSansMono-30" transform="translate(240.820312 0)"/>
     <use xlink:href="#DejaVuSansMono-30" transform="translate(301.025391 0)"/>
     <use xlink:href="#DejaVuSansMono-30" transform="translate(361.230469 0)"/>
     <use xlink:href="#DejaVuSansMono-30" transform="translate(421.435547 0)"/>
     <use xlink:href="#DejaVuSansMono-42" transform="translate(481.640625 0)"/>
     <use xlink:href="#DejaVuSansMono-42" transform="translate(541.845703 0)"/>
    </g>
   </g>
   <g id="text_37">
    <!-- Register file: writes and reads (XLEN = 32) -->
    <g transform="translate(325.276641 17.077969) scale(0.13 -0.13)">
     <defs>
      <path id="DejaVuSans-52" d="M 2841 2188 
Q 3044 2119 3236 1894 
Q 3428 1669 3622 1275 
L 4263 0 
L 3584 0 
L 2988 1197 
Q 2756 1666 2539 1819 
Q 2322 1972 1947 1972 
L 1259 1972 
L 1259 0 
L 628 0 
L 628 4666 
L 2053 4666 
Q 2853 4666 3247 4331 
Q 3641 3997 3641 3322 
Q 3641 2881 3436 2590 
Q 3231 2300 2841 2188 
z
M 1259 4147 
L 1259 2491 
L 2053 2491 
Q 2509 2491 2742 2702 
Q 2975 2913 2975 3322 
Q 2975 3731 2742 3939 
Q 2509 4147 2053 4147 
L 1259 4147 
z
" transform="scale(0.015625)"/>
      <path id="DejaVuSans-67" d="M 2906 1791 
Q 2906 2416 2648 2759 
Q 2391 3103 1925 3103 
Q 1463 3103 1205 2759 
Q 947 2416 947 1791 
Q 947 1169 1205 825 
Q 1463 481 1925 481 
Q 2391 481 2648 825 
Q 2906 1169 2906 1791 
z
M 3481 434 
Q 3481 -459 3084 -895 
Q 2688 -1331 1869 -1331 
Q 1566 -1331 1297 -1286 
Q 1028 -1241 775 -1147 
L 775 -588 
Q 1028 -725 1275 -790 
Q 1522 -856 1778 -856 
Q 2344 -856 2625 -561 
Q 2906 -266 2906 331 
L 2906 616 
Q 2728 306 2450 153 
Q 2172 0 1784 0 
Q 1141 0 747 490 
Q 353 981 353 1791 
Q 353 2603 747 3093 
Q 1141 3584 1784 3584 
Q 2172 3584 2450 3431 
Q 2728 3278 2906 2969 
L 2906 3500 
L 3481 3500 
L 3481 434 
z
" transform="scale(0.015625)"/>
      <path id="DejaVuSans-69" d="M 603 3500 
L 1178 3500 
L 1178 0 
L 603 0 
L 603 3500 
z
M 603 4863 
L 1178 4863 
L 1178 4134 
L 603 4134 
L 603 4863 
z
" transform="scale(0.015625)"/>
      <path id="DejaVuSans-74" d="M 1172 4494 
L 1172 3500 
L 2356 3500 
L 2356 3053 
L 1172 3053 
L 1172 1153 
Q 1172 725 1289 603 
Q 1406 481 1766 481 
L 2356 481 
L 2356 0 
L 1766 0 
Q 1100 0 847 248 
Q 594 497 594 1153 
L 594 3053 
L 172 3053 
L 172 3500 
L 594 3500 
L 594 4494 
L 1172 4494 
z
" transform="scale(0.015625)"/>
      <path id="DejaVuSans-72" d="M 2631 2963 
Q 2534 3019 2420 3045 
Q 2306 3072 2169 3072 
Q 1681 3072 1420 2755 
Q 1159 2438 1159 1844 
L 1159 0 
L 581 0 
L 581 3500 
L 1159 3500 
L 1159 2956 
Q 1341 3275 1631 3429 
Q 1922 3584 2338 3584 
Q 2397 3584 2469 3576 
Q 2541 3569 2628 3553 
L 2631 2963 
z
" transform="scale(0.015625)"/>
      <path id="DejaVuSans-66" d="M 2375 4863 
L 2375 4384 
L 1825 4384 
Q 1516 4384 1395 4259 
Q 1275 4134 1275 3809 
L 1275 3500 
L 2222 3500 
L 2222 3053 
L 1275 3053 
L 1275 0 
L 697 0 
L 697 3053 
L 147 3053 
L 147 3500 
L 697 3500 
L 697 3744 
Q 697 4328 969 4595 
Q 1241 4863 1831 4863 
L 2375 4863 
z
" transform="scale(0.015625)"/>
      <path id="DejaVuSans-3a" d="M 750 794 
L 1409 794 
L 1409 0 
L 750 0 
L 750 794 
z
M 750 3309 
L 1409 3309 
L 1409 2516 
L 750 2516 
L 750 3309 
z
" transform="scale(0.015625)"/>
      <path id="DejaVuSans-77" d="M 269 3500 
L 844 3500 
L 1563 769 
L 2278 3500 
L 2956 3500 
L 3675 769 
L 4391 3500 
L 4966 3500 
L 4050 0 
L 3372 0 
L 2619 2869 
L 1863 0 
L 1184 0 
L 269 3500 
z
" transform="scale(0.015625)"/>
      <path id="DejaVuSans-61" d="M 2194 1759 
Q 1497 1759 1228 1600 
Q 959 1441 959 1056 
Q 959 750 1161 570 
Q 1363 391 1709 391 
Q 2188 391 2477 730 
Q 2766 1069 2766 1631 
L 2766 1759 
L 2194 1759 
z
M 3341 1997 
L 3341 0 
L 2766 0 
L 2766 531 
Q 2569 213 2275 61 
Q 1981 -91 1556 -91 
Q 1019 -91 701 211 
Q 384 513 384 1019 
Q 384 1609 779 1909 
Q 1175 2209 1959 2209 
L 2766 2209 
L 2766 2266 
Q 2766 2663 2505 2880 
Q 2244 3097 1772 3097 
Q 1472 3097 1187 3025 
Q 903 2953 641 2809 
L 641 3341 
Q 956 3463 1253 3523 
Q 1550 3584 1831 3584 
Q 2591 3584 2966 3190 
Q 3341 2797 3341 1997 
z
" transform="scale(0.015625)"/>
      <path id="DejaVuSans-6e" d="M 3513 2113 
L 3513 0 
L 2938 0 
L 2938 2094 
Q 2938 2591 2744 2837 
Q 2550 3084 2163 3084 
Q 1697 3084 1428 2787 
Q 1159 2491 1159 1978 
L 1159 0 
L 581 0 
L 581 3500 
L 1159 3500 
L 1159 2956 
Q 1366 3272 1645 3428 
Q 1925 3584 2291 3584 
Q 2894 3584 3203 3211 
Q 3513 2838 3513 2113 
z
" transform="scale(0.015625)"/>
      <path id="DejaVuSans-64" d="M 2906 2969 
L 2906 4863 
L 3481 4863 
L 3481 0 
L 2906 0 
L 2906 525 
Q 2725 213 2448 61 
Q 2172 -91 1784 -91 
Q 1150 -91 751 415 
Q 353 922 353 1747 
Q 353 2572 751 3078 
Q 1150 3584 1784 3584 
Q 2172 3584 2448 3432 
Q 2725 3281 2906 2969 
z
M 947 1747 
Q 947 1113 1208 752 
Q 1469 391 1925 391 
Q 2381 391 2643 752 
Q 2906 1113 2906 1747 
Q 2906 2381 2643 2742 
Q 2381 3103 1925 3103 
Q 1469 3103 1208 2742 
Q 947 2381 947 1747 
z
" transform="scale(0.015625)"/>
      <path id="DejaVuSans-28" d="M 1984 4856 
Q 1566 4138 1362 3434 
Q 1159 2731 1159 2009 
Q 1159 1288 1364 580 
Q 1569 -128 1984 -844 
L 1484 -844 
Q 1016 -109 783 600 
Q 550 1309 550 2009 
Q 550 2706 781 3412 
Q 1013 4119 1484 4856 
L 1984 4856 
z
" transform="scale(0.015625)"/>
      <path id="DejaVuSans-58" d="M 403 4666 
L 1081 4666 
L 2241 2931 
L 3406 4666 
L 4084 4666 
L 2584 2425 
L 4184 0 
L 3506 0 
L 2194 1984 
L 872 0 
L 191 0 
L 1856 2491 
L 403 4666 
z
" transform="scale(0.015625)"/>
      <path id="DejaVuSans-4c" d="M 628 4666 
L 1259 4666 
L 1259 531 
L 3531 531 
L 3531 0 
L 628 0 
L 628 4666 
z
" transform="scale(0.015625)"/>
      <path id="DejaVuSans-45" d="M 628 4666 
L 3578 4666 
L 3578 4134 
L 1259 4134 
L 1259 2753 
L 3481 2753 
L 3481 2222 
L 1259 2222 
L 1259 531 
L 3634 531 
L 3634 0 
L 628 0 
L 628 4666 
z
" transform="scale(0.015625)"/>
      <path id="DejaVuSans-4e" d="M 628 4666 
L 1478 4666 
L 3547 763 
L 3547 4666 
L 4159 4666 
L 4159 0 
L 3309 0 
L 1241 3903 
L 1241 0 
L 628 0 
L 628 4666 
z
" transform="scale(0.015625)"/>
      <path id="DejaVuSans-3d" d="M 678 2906 
L 4684 2906 
L 4684 2381 
L 678 2381 
L 678 2906 
z
M 678 1631 
L 4684 1631 
L 4684 1100 
L 678 1100 
L 678 1631 
z
" transform="scale(0.015625)"/>
      <path id="DejaVuSans-29" d="M 513 4856 
L 1013 4856 
Q 1481 4119 1714 3412 
Q 1947 2706 1947 2009 
Q 1947 1309 1714 600 
Q 1481 -109 1013 -844 
L 513 -844 
Q 928 -128 1133 580 
Q 1338 1288 1338 2009 
Q 1338 2731 1133 3434 
Q 928 4138 513 4856 
z
" transform="scale(0.015625)"/>
     </defs>
     <use xlink:href="#DejaVuSans-52"/>
     <use xlink:href="#DejaVuSans-65" transform="translate(64.982422 0)"/>
     <use xlink:href="#DejaVuSans-67" transform="translate(126.505859 0)"/>
     <use xlink:href="#DejaVuSans-69" transform="translate(189.982422 0)"/>
     <use xlink:href="#DejaVuSans-73" transform="translate(217.765625 0)"/>
     <use xlink:href="#DejaVuSans-74" transform="translate(269.865234 0)"/>
     <use xlink:href="#DejaVuSans-65" transform="translate(309.074219 0)"/>
     <use xlink:href="#DejaVuSans-72" transform="translate(370.597656 0)"/>
     <use xlink:href="#DejaVuSans-20" transform="translate(411.710938 0)"/>
     <use xlink:href="#DejaVuSans-66" transform="translate(443.498047 0)"/>
     <use xlink:href="#DejaVuSans-69" transform="translate(478.703125 0)"/>
     <use xlink:href="#DejaVuSans-6c" transform="translate(506.486328 0)"/>
     <use xlink:href="#DejaVuSans-65" transform="translate(534.269531 0)"/>
     <use xlink:href="#DejaVuSans-3a" transform="translate(595.792969 0)"/>
     <use xlink:href="#DejaVuSans-20" transform="translate(629.484375 0)"/>
     <use xlink:href="#DejaVuSans-77" transform="translate(661.271484 0)"/>
     <use xlink:href="#DejaVuSans-72" transform="translate(743.058594 0)"/>
     <use xlink:href="#DejaVuSans-69" transform="translate(784.171875 0)"/>
     <use xlink:href="#DejaVuSans-74" transform="translate(811.955078 0)"/>
     <use xlink:href="#DejaVuSans-65" transform="translate(851.164062 0)"/>
     <use xlink:href="#DejaVuSans-73" transform="translate(912.6875 0)"/>
     <use xlink:href="#DejaVuSans-20" transform="translate(964.787109 0)"/>
     <use xlink:href="#DejaVuSans-61" transform="translate(996.574219 0)"/>
     <use xlink:href="#DejaVuSans-6e" transform="translate(1057.853516 0)"/>
     <use xlink:href="#DejaVuSans-64" transform="translate(1121.232422 0)"/>
     <use xlink:href="#DejaVuSans-20" transform="translate(1184.708984 0)"/>
     <use xlink:href="#DejaVuSans-72" transform="translate(1216.496094 0)"/>
     <use xlink:href="#DejaVuSans-65" transform="translate(1255.359375 0)"/>
     <use xlink:href="#DejaVuSans-61" transform="translate(1316.882812 0)"/>
     <use xlink:href="#DejaVuSans-64" transform="translate(1378.162109 0)"/>
     <use xlink:href="#DejaVuSans-73" transform="translate(1441.638672 0)"/>
     <use xlink:href="#DejaVuSans-20" transform="translate(1493.738281 0)"/>
     <use xlink:href="#DejaVuSans-28" transform="translate(1525.525391 0)"/>
     <use xlink:href="#DejaVuSans-58" transform="translate(1564.539062 0)"/>
     <use xlink:href="#DejaVuSans-4c" transform="translate(1633.044922 0)"/>
     <use xlink:href="#DejaVuSans-45" transform="translate(1688.757812 0)"/>
     <use xlink:href="#DejaVuSans-4e" transform="translate(1751.941406 0)"/>
     <use xlink:href="#DejaVuSans-20" transform="translate(1826.746094 0)"/>
     <use xlink:href="#DejaVuSans-3d" transform="translate(1858.533203 0)"/>
     <use xlink:href="#DejaVuSans-20" transform="translate(1942.322266 0)"/>
     <use xlink:href="#DejaVuSans-33" transform="translate(1974.109375 0)"/>
     <use xlink:href="#DejaVuSans-32" transform="translate(2037.732422 0)"/>
     <use xlink:href="#DejaVuSans-29" transform="translate(2101.355469 0)"/>
    </g>
   </g>
  </g>
 </g>
 <defs>
  <clipPath id="pedc537649a">
   <rect x="7.2" y="33.077969" width="914.4" height="379.8"/>
  </clipPath>
 </defs>
</svg>
